<?xml version="1.0" standalone="no"?><!DOCTYPE svg PUBLIC "-//W3C//DTD SVG 1.1//EN" "http://www.w3.org/Graphics/SVG/1.1/DTD/svg11.dtd"><svg class="icon" width="16px" height="16.00px" viewBox="0 0 1024 1024" version="1.1" xmlns="http://www.w3.org/2000/svg"><path fill="#bfbfbf" d="M279.272727 69.818182c-115.479273 0-209.454545 93.952-209.454545 209.454545s93.975273 209.454545 209.454545 209.454546h139.636364c38.493091 0 69.818182-31.325091 69.818182-69.818182v-139.636364c0-115.502545-93.975273-209.454545-209.454546-209.454545z m162.909091 349.090909c0 12.846545-10.449455 23.272727-23.272727 23.272727h-139.636364c-89.832727 0-162.909091-73.099636-162.909091-162.909091s73.076364-162.909091 162.909091-162.909091 162.909091 73.099636 162.909091 162.909091v139.636364zM605.090909 488.727273h139.636364c115.479273 0 209.454545-93.952 209.454545-209.454546s-93.975273-209.454545-209.454545-209.454545-209.454545 93.952-209.454546 209.454545v139.636364c0 38.493091 31.325091 69.818182 69.818182 69.818182z m-23.272727-209.454546c0-89.809455 73.076364-162.909091 162.909091-162.909091s162.909091 73.099636 162.909091 162.909091-73.076364 162.909091-162.909091 162.909091h-139.636364c-12.823273 0-23.272727-10.426182-23.272727-23.272727v-139.636364zM418.909091 535.272727h-139.636364c-115.479273 0-209.454545 93.952-209.454545 209.454546s93.975273 209.454545 209.454545 209.454545 209.454545-93.952 209.454546-209.454545v-139.636364c0-38.493091-31.325091-69.818182-69.818182-69.818182z m23.272727 209.454546c0 89.809455-73.076364 162.909091-162.909091 162.909091s-162.909091-73.099636-162.909091-162.909091 73.076364-162.909091 162.909091-162.909091h139.636364c12.823273 0 23.272727 10.426182 23.272727 23.272727v139.636364zM744.727273 535.272727h-139.636364c-38.493091 0-69.818182 31.325091-69.818182 69.818182v139.636364c0 115.502545 93.975273 209.454545 209.454546 209.454545s209.454545-93.952 209.454545-209.454545-93.975273-209.454545-209.454545-209.454546z m0 372.363637c-89.832727 0-162.909091-73.099636-162.909091-162.909091v-139.636364c0-12.846545 10.449455-23.272727 23.272727-23.272727h139.636364c89.832727 0 162.909091 73.099636 162.909091 162.909091s-73.076364 162.909091-162.909091 162.909091z"  /></svg>